# xmcd
#
# Track frame offsets: 
#        150
#        14215
#        31947
#        49122
#        62916
#        72781
#        89384
#        102607
#        119138
#        131992
#        142617
#        158972
#        169073
#        181329
#        194989
#        206842
#        221837
#        233396
#        246436
#        268739
#        282863
#        300873
#        314675
#        324663
#
# Disc length: 4527 seconds
#
# Revision: 3
# Processed by: cddbd v1.5.2PL0 Copyright (c) Steve Scherf et al.
# Submitted via: ExactAudioCopy v0.95b4
#
DISCID=7b11ad18
DTITLE=In The Mix - Ibiza Classics (Disk 2)
DYEAR=2006
DGENRE=House
TTITLE0=The Source feat. Candi Stanton - You Got The Love (New Voyager
TTITLE0=Radio Eadit)
TTITLE1=Robert Miles - Children
TTITLE2=Olive - You're Not Alone
TTITLE3=Tiësto - Adagio For Strings
TTITLE4=PPK - Resurrection
TTITLE5=Paul Van Dyk - For An Angel
TTITLE6=Fragma - Toca's Miracle
TTITLE7=BBE - Seven Days And One Week
TTITLE8=Planet Perfecto - Bullet in a gun
TTITLE9=Zombie Nation - Kernkraft 400
TTITLE10=Size 9 - I'm Ready (Remix Edit)
TTITLE11=ATB - 9 PM (Till I Come)
TTITLE12=DJ Quicksilver - Bellissima
TTITLE13=Binary Finary - 1998
TTITLE14=Darude - Sandstorm
TTITLE15=Delerium feat. Sarah McLachlan - Silence (Airscape Remix)
TTITLE16=Jakatta - American Dream
TTITLE17=IIO - Rapture
TTITLE18=Martin Solveig - Rocking Music
TTITLE19=Duke - So In Love With You (Haji and Emanuel Remix)
TTITLE20=Moloko - Sing It Back (Boris' Musical Mix)
TTITLE21=Madison Avenue - Don't Call Me Baby
TTITLE22=Cassius - Cassius 1999
TTITLE23=FSOL - Papua New Guinea
EXTD=
EXTT0=
EXTT1=
EXTT2=
EXTT3=
EXTT4=
EXTT5=
EXTT6=
EXTT7=
EXTT8=
EXTT9=
EXTT10=
EXTT11=
EXTT12=
EXTT13=
EXTT14=
EXTT15=
EXTT16=
EXTT17=
EXTT18=
EXTT19=
EXTT20=
EXTT21=
EXTT22=
EXTT23=
PLAYORDER=
